<?xml version="1.0" encoding="utf-8"?>
<!-- Generator: Adobe Illustrator 16.0.0, SVG Export Plug-In . SVG Version: 6.00 Build 0)  -->
<!DOCTYPE svg PUBLIC "-//W3C//DTD SVG 1.1//EN" "http://www.w3.org/Graphics/SVG/1.1/DTD/svg11.dtd">
<svg version="1.1" id="Capa_1" xmlns="http://www.w3.org/2000/svg" xmlns:xlink="http://www.w3.org/1999/xlink" x="0px" y="0px"
	 width="595.279px" height="841.891px" viewBox="0 0 595.279 841.891" enable-background="new 0 0 595.279 841.891"
	 xml:space="preserve">
<g>
	<g>
		<path fill="#001A33" d="M584.256,420.945L584.256,420.945c0,158.289-128.327,286.616-286.617,286.616l0,0
			c-158.289,0-286.617-128.327-286.617-286.616l0,0c0-158.289,128.328-286.616,286.617-286.616l0,0
			C455.929,134.329,584.256,262.656,584.256,420.945z"/>
		<path fill="#001A33" d="M-0.001,420.945c0-164.121,133.52-297.64,297.64-297.64c164.122,0,297.641,133.519,297.641,297.64
			s-133.52,297.64-297.641,297.64C133.519,718.585-0.001,585.066-0.001,420.945z M573.232,420.945
			c0-151.962-123.631-275.593-275.592-275.593c-151.962,0-275.593,123.631-275.593,275.593s123.631,275.593,275.593,275.593
			C449.601,696.538,573.232,572.907,573.232,420.945z"/>
	</g>
	<path fill="#001A33" d="M154.331,472.823c0-2.822,1.08-5.645,3.23-7.794l126.75-126.751c7.354-7.353,19.303-7.353,26.656,0
		l126.75,126.751c4.311,4.311,4.311,11.277,0,15.587c-4.311,4.311-11.277,4.311-15.588,0l-124.491-124.49l-124.49,124.49
		c-4.311,4.311-11.277,4.311-15.588,0C155.411,478.467,154.331,475.645,154.331,472.823z"/>
</g>
</svg>
