<?xml version="1.0" encoding="utf-8"?>
<!-- Generator: Adobe Illustrator 16.0.0, SVG Export Plug-In . SVG Version: 6.00 Build 0)  -->
<!DOCTYPE svg PUBLIC "-//W3C//DTD SVG 1.1//EN" "http://www.w3.org/Graphics/SVG/1.1/DTD/svg11.dtd">
<svg version="1.1" id="Capa_1" xmlns="http://www.w3.org/2000/svg" xmlns:xlink="http://www.w3.org/1999/xlink" x="0px" y="0px"
	 width="595.279px" height="841.891px" viewBox="0 0 595.279 841.891" enable-background="new 0 0 595.279 841.891"
	 xml:space="preserve">
<g>
	<g>
		<path fill="#001A33" d="M297.64,134.329L297.64,134.329c158.289,0,286.616,128.327,286.616,286.617l0,0
			c0,158.289-128.327,286.616-286.616,286.616l0,0c-158.289,0-286.616-128.327-286.616-286.616l0,0
			C11.024,262.656,139.351,134.329,297.64,134.329z"/>
		<path fill="#001A33" d="M297.64,718.585C133.519,718.585,0,585.066,0,420.945s133.519-297.641,297.64-297.641
			s297.64,133.52,297.64,297.641S461.761,718.585,297.64,718.585z M297.64,145.353c-151.962,0-275.593,123.631-275.593,275.593
			S145.678,696.538,297.64,696.538s275.593-123.631,275.593-275.593S449.602,145.353,297.64,145.353z"/>
	</g>
	<path fill="#001A33" d="M349.518,564.253c-2.822,0-5.645-1.08-7.794-3.229L214.973,434.272c-7.353-7.353-7.353-19.302,0-26.655
		l126.751-126.75c4.311-4.31,11.277-4.31,15.587,0c4.311,4.311,4.311,11.277,0,15.587l-124.49,124.491l124.49,124.49
		c4.311,4.311,4.311,11.277,0,15.588C355.161,563.173,352.339,564.253,349.518,564.253z"/>
</g>
</svg>
